<?xml version="1.0"?>
<svg xmlns="http://www.w3.org/2000/svg" xmlns:xlink="http://www.w3.org/1999/xlink" xmlns:svgjs="http://svgjs.com/svgjs" version="1.1" width="512" height="512" x="0" y="0" viewBox="0 0 510.501 510.501" style="enable-background:new 0 0 512 512" xml:space="preserve"><g><path xmlns="http://www.w3.org/2000/svg" d="m425.841 102.103c-28.34-35.916-67.763-62.241-111.507-74.605v-9.748c0-9.788-7.962-17.75-17.75-17.75h-82.667c-9.788 0-17.75 7.962-17.75 17.75v9.747c-43.744 12.365-83.167 38.69-111.507 74.606-30.479 38.627-46.59 85.108-46.59 134.418 0 49.218 16.922 97.43 47.65 135.754 15.21 18.971 33.501 35.189 53.875 48.033l-25.04 73.671c-1.294 3.808-.668 8.032 1.673 11.302 2.342 3.269 6.141 5.221 10.162 5.221h204.86c4.142 0 7.5-3.358 7.5-7.5s-3.358-7.5-7.5-7.5h-20.22v-49.049c16.235-4.31 31.894-10.53 46.648-18.448l22.942 67.497h-15.37c-4.142 0-7.5 3.358-7.5 7.5s3.358 7.5 7.5 7.5h18.86c4.021 0 7.82-1.952 10.162-5.221 2.342-3.27 2.967-7.494 1.673-11.302l-25.04-73.671c20.375-12.844 38.665-29.062 53.875-48.033 30.728-38.324 47.65-86.536 47.65-135.754.001-49.31-16.11-95.791-46.589-134.418zm-89.97 209.748h-106.621c-4.142 0-7.5 3.358-7.5 7.5s3.358 7.5 7.5 7.5h105.12v44.64h-158.24v-44.64h19.12c4.142 0 7.5-3.358 7.5-7.5s-3.358-7.5-7.5-7.5h-20.62c-7.444 0-13.5 6.056-13.5 13.5v23.819c-33.22-27.771-52.68-68.889-52.68-112.649 0-61.566 38.658-116.791 96.347-137.897 1.293.443 2.674.695 4.116.695h92.675c1.441 0 2.822-.252 4.116-.695 57.689 21.106 96.347 76.331 96.347 137.897 0 43.76-19.46 84.878-52.68 112.649v-23.819c0-7.444-6.057-13.5-13.5-13.5zm-124.704-294.101c0-1.516 1.234-2.75 2.75-2.75h82.667c1.516 0 2.75 1.234 2.75 2.75v66.569h-88.167zm-158.097 218.771c0-89.454 58.367-167.63 143.097-193.4v42.733c-61.656 24.181-102.716 84.056-102.716 150.667 0 52.317 25.23 101.207 67.68 131.606v4.864c0 7.444 6.056 13.5 13.5 13.5h24.84v44.415c-16.307-4.646-31.66-11.2-45.841-19.388-.725-.654-1.59-1.175-2.57-1.514-59.718-35.671-97.99-100.579-97.99-173.483zm99.752 191.483c14.754 7.918 30.414 14.138 46.648 18.448v49.049h-69.59zm61.649 67.497v-109.01h81.56v109.01zm144.97-85.497c-.98.339-1.845.86-2.57 1.514-14.181 8.188-29.534 14.742-45.841 19.388v-44.415h24.84c7.444 0 13.5-6.056 13.5-13.5v-4.864c42.45-30.4 67.68-79.29 67.68-131.606 0-66.611-41.06-126.486-102.716-150.667v-42.733c84.729 25.77 143.097 103.946 143.097 193.4 0 72.904-38.272 137.812-97.99 173.483z" fill="#ffffff" data-original="#000000" style=""/></g></svg>
